# xmcd
#
# Track frame offsets: 
#        150
#        15840
#        42341
#        58259
#        79223
#        96160
#        112401
#        136915
#        150362
#        183222
#        214000
#        229965
#        256056
#        293012
#        307773
#        323648
#
# Disc length: 4528 seconds
#
# Revision: 0
# Processed by: cddbd v1.5.2PL0 Copyright (c) Steve Scherf et al.
# Submitted via: ExactAudioCopy v1.0b3
#
DISCID=ce11ae10
DTITLE=Various Artist - Deejay Nation Vol. 3 - CD 2
DYEAR=1900
DGENRE=
TTITLE0=Dr. Motte and Westbam - Love Parade 2000 (One World One Love Par
TTITLE0=ade) (Short)
TTITLE1=Kamaya Painters - Far From Over (Original)
TTITLE2=Avancada - Dirty Bitch
TTITLE3=Ibiza United Vs. K.K. Project - Wait A Minute (Hands Up!) (K.K
TTITLE3='s Play DJ Mix)
TTITLE4=666 - D.E.V.I.L. (Radio Mix)
TTITLE5=DJ Triple 8 - All You DJ's
TTITLE6=Club Robbers - Search For The Ball (Pitcher's Club Mix)
TTITLE7=Killer K - Get On The Move (Original Radio)
TTITLE8=Those 2 - Get Wicked (Yomanda Rmx)
TTITLE9=Jamie Lewis and Nick Morris - Sunshine Hotel (Main Mix)
TTITLE10=DJ 88 Keys - Everybody Up (Mike 303 Turbocompressor Edit)
TTITLE11=Mike 303 - Big Big Smile
TTITLE12=DJ Jürgen - Higher and Higher (Klubbheads Rmx)
TTITLE13=Southside Spinners - Luvstruck 2000 (Rmx Single Edit)
TTITLE14=MJ Lan - Generate Bodies (Short)
TTITLE15=Westbam - Love Bass (Short)
EXTD=
EXTT0=
EXTT1=
EXTT2=
EXTT3=
EXTT4=
EXTT5=
EXTT6=
EXTT7=
EXTT8=
EXTT9=
EXTT10=
EXTT11=
EXTT12=
EXTT13=
EXTT14=
EXTT15=
PLAYORDER=
